<svg width="61" height="61" viewBox="0 0 61 61" fill="none" xmlns="http://www.w3.org/2000/svg">
<path d="M30.5 53C33.4547 53 36.3806 52.418 39.1104 51.2873C41.8402 50.1566 44.3206 48.4992 46.4099 46.4099C48.4992 44.3206 50.1566 41.8402 51.2873 39.1104C52.418 36.3806 53 33.4547 53 30.5C53 27.5453 52.418 24.6194 51.2873 21.8896C50.1566 19.1598 48.4992 16.6794 46.4099 14.5901C44.3206 12.5008 41.8402 10.8434 39.1104 9.71271C36.3806 8.58198 33.4547 8 30.5 8C24.5326 8 18.8097 10.3705 14.5901 14.5901C10.3705 18.8097 8 24.5326 8 30.5C8 36.4674 10.3705 42.1903 14.5901 46.4099C18.8097 50.6295 24.5326 53 30.5 53ZM58 30.5C58 45.6875 45.6875 58 30.5 58C15.3125 58 3 45.6875 3 30.5C3 15.3125 15.3125 3 30.5 3C45.6875 3 58 15.3125 58 30.5ZM30.7125 49.25H25.5V36.75H16.225L30.2875 11.75H35.5V24.25H44.775L30.7125 49.25ZM30.5 39.4275L36.225 29.25H30.5V21.5725L24.775 31.75H30.5V39.4275Z" fill="#696969"/>
</svg>
