<?xml version="1.0" standalone="no"?>
<!DOCTYPE svg PUBLIC "-//W3C//DTD SVG 20010904//EN"
 "http://www.w3.org/TR/2001/REC-SVG-20010904/DTD/svg10.dtd">
<svg version="1.0" xmlns="http://www.w3.org/2000/svg"
 width="260.000000pt" height="260.000000pt" viewBox="0 0 260.000000 260.000000"
 preserveAspectRatio="xMidYMid meet">
<metadata>
Created by potrace 1.14, written by Peter Selinger 2001-2017
</metadata>
<g transform="translate(0.000000,260.000000) scale(0.100000,-0.100000)"
fill="#000000" stroke="none">
<path d="M2065 2464 c-20 -4 -327 -34 -562 -56 -68 -6 -123 -15 -123 -19 0 -7
116 -105 192 -163 l37 -28 34 26 c73 56 189 74 323 50 238 -41 416 -157 444
-289 6 -28 9 -30 43 -27 l37 4 0 -485 c0 -266 3 -486 6 -489 3 -3 14 -4 24 -1
19 5 20 20 22 492 l3 486 28 3 c26 3 27 5 27 70 l-1 67 -229 183 c-234 186
-237 188 -305 176z"/>
<path d="M1748 2216 c-58 -21 -87 -44 -103 -79 -18 -40 -88 -287 -83 -292 2
-2 23 2 46 11 214 73 470 8 637 -162 36 -37 56 -52 59 -43 22 64 76 269 76
289 0 87 -148 208 -315 260 -91 28 -264 37 -317 16z"/>
<path d="M492 1860 c-113 -24 -215 -77 -290 -151 -223 -222 -225 -567 -2 -789
110 -110 232 -160 390 -160 120 0 238 36 316 95 18 14 35 25 38 25 3 0 7 -39
8 -87 l3 -88 89 -3 c54 -2 92 1 96 7 3 6 5 73 4 148 -1 76 -3 209 -3 296 l-1
157 -290 0 -291 0 3 -92 3 -93 138 -5 138 -5 -33 -32 c-56 -54 -135 -84 -222
-84 -91 0 -144 21 -210 81 -91 84 -123 200 -87 318 29 96 75 153 158 194 59
29 78 33 143 33 120 -1 221 -60 272 -160 11 -22 22 -42 24 -44 5 -5 190 59
209 73 18 13 16 18 -26 91 -70 123 -190 221 -317 259 -66 19 -204 28 -260 16z"/>
<path d="M1725 1819 c-129 -15 -237 -69 -332 -165 -161 -163 -198 -408 -96
-622 36 -74 149 -188 229 -230 159 -83 390 -83 546 0 182 97 288 273 288 477
0 340 -284 581 -635 540z m156 -271 c86 -29 149 -99 174 -194 51 -193 -87
-368 -276 -351 -176 16 -279 190 -223 377 19 63 98 149 154 167 47 15 130 16
171 1z"/>
<path d="M2480 915 l0 -46 38 3 c36 3 37 4 37 43 0 39 -1 40 -37 43 l-38 3 0
-46z"/>
<path d="M2487 826 c-21 -31 -41 -111 -33 -131 4 -13 18 -15 63 -13 l58 3 -2
45 c-3 58 -31 120 -53 120 -10 0 -25 -11 -33 -24z"/>
</g>
</svg>
